#!OML:ASF F:\VICON\USERDATA\INSTALL\rory3\rory3.ASF
:FULLY-SPECIFIED
:DEGREES
4248
root -5.39091 14.598 -12.3703 -565.426 -62.3149 567.595
lowerback 17.477 4.11854 2.82035
upperback -2.5392 6.59242 4.61713
thorax -12.9435 3.02398 1.68975
lowerneck -11.0385 -7.31699 -2.23084
upperneck 18.764 -10.863 4.18891
head 7.97528 -5.05825 0.606703
rclavicle 4.46334e-014 2.36554e-014
rhumerus -18.0698 49.5462 -106.662
rradius 50.1955
rwrist -72.236
rhand -11.2519 1.92755
rfingers 7.12502
rthumb 14.7778 -27.5256
lclavicle 4.46334e-014 2.36554e-014
lhumerus 35.0457 -36.9162 26.4668
lradius 102.7
lwrist 17.3147
lhand 1.89773 18.8241
lfingers 7.12502
lthumb 27.4068 46.8508
rfemur -1.25076 -1.03876 8.19424
rtibia 37.1516
rfoot -19.2816 -17.9243
rtoes 4.87266
lfemur -39.6641 14.2476 -13.1614
ltibia 74.15
lfoot -30.3504 3.57017
ltoes 12.2696
4249
root -5.40125 14.5983 -12.3579 -565.378 -61.92 567.431
lowerback 17.5262 4.14928 2.84237
upperback -2.44526 6.64098 4.72121
thorax -12.8771 3.04821 1.7784
lowerneck -11.1164 -7.27279 -2.27139
upperneck 18.8189 -10.778 4.10349
head 8.00151 -5.02534 0.590718
rclavicle 2.23136e-014 -2.01766e-014
rhumerus -18.1398 49.8545 -106.715
rradius 50.2171
rwrist -72.2522
rhand -11.2304 2.01508
rfingers 7.12502
rthumb 14.7985 -27.4365
lclavicle 2.23136e-014 -2.01766e-014
lhumerus 34.6197 -36.6976 26.534
lradius 103.049
lwrist 17.4762
lhand 1.84139 18.869
lfingers 7.12502
lthumb 27.3529 46.9042
rfemur -1.26975 -1.04085 8.19265
rtibia 37.1069
rfoot -18.6792 -18.3151
rtoes 3.50531
lfemur -39.4586 14.647 -13.0471
ltibia 74.3852
lfoot -30.5935 3.76804
ltoes 11.6497
4250
root -5.40999 14.5971 -12.3477 -565.112 -61.7679 567.078
lowerback 17.5565 4.15597 2.63842
upperback -2.39329 6.61197 4.8081
thorax -12.8702 3.05326 1.99615
lowerneck -11.1016 -7.21159 -2.23214
upperneck 18.7767 -10.6574 3.92901
head 7.9679 -4.98187 0.543384
rclavicle 1.98163e-015 1.59028e-015
rhumerus -18.1607 50.2778 -106.686
rradius 50.194
rwrist -72.4249
rhand -11.3236 2.09406
rfingers 7.12502
rthumb 14.7087 -27.3641
lclavicle 1.98163e-015 1.59028e-015
lhumerus 34.235 -36.4854 26.6366
lradius 103.382
lwrist 17.6676
lhand 1.79426 18.92
lfingers 7.12502
lthumb 27.3078 46.9623
rfemur -1.31912 -1.12146 7.96391
rtibia 37.0243
rfoot -18.3678 -18.4611
rtoes 3.66145
lfemur -39.3264 14.7655 -13.1672
ltibia 74.5769
lfoot -31.016 3.4154
ltoes 12.2392
4251
root -5.41676 14.5999 -12.3384 -564.489 -61.7134 566.477
lowerback 17.4741 4.15649 2.30868
upperback -2.39179 6.54 4.80957
thorax -12.856 3.04698 2.2071
lowerneck -11.0442 -7.14947 -2.10169
upperneck 18.6582 -10.5353 3.70235
head 7.89353 -4.93814 0.468508
rclavicle 5.98311e-014 3.37934e-015
rhumerus -18.2509 50.5981 -106.69
rradius 50.2895
rwrist -72.532
rhand -11.2634 2.01688
rfingers 7.12502
rthumb 14.7667 -27.4371
lclavicle 5.98311e-014 3.37934e-015
lhumerus 34.1179 -36.4672 26.8777
lradius 103.272
lwrist 17.4985
lhand 1.73297 18.8779
lfingers 7.12502
lthumb 27.2492 46.9295
rfemur -1.64445 -1.10363 7.59967
rtibia 37.1552
rfoot -18.4514 -18.3481
rtoes 5.15539
lfemur -39.2612 14.8039 -13.477
ltibia 74.3948
lfoot -31.1132 2.92501
ltoes 13.1242
4252
root -5.42207 14.6035 -12.3306 -564.045 -61.6369 566.064
lowerback 17.4382 4.19047 2.1499
upperback -2.40828 6.54855 4.76332
thorax -12.8662 3.06237 2.24341
lowerneck -11.0464 -7.17439 -2.15288
upperneck 18.6615 -10.5804 3.78987
head 7.90447 -4.95527 0.499438
rclavicle 7.47865e-014 3.24516e-014
rhumerus -18.1642 50.5753 -106.634
rradius 50.2374
rwrist -72.5243
rhand -11.0159 1.81762
rfingers 7.12502
rthumb 15.0052 -27.6187
lclavicle 7.47865e-014 3.24516e-014
lhumerus 34.2016 -36.6217 27.0256
lradius 103.189
lwrist 17.206
lhand 1.76411 18.8609
lfingers 7.12502
lthumb 27.279 46.9078
rfemur -1.94102 -1.11474 7.39043
rtibia 37.3445
rfoot -18.5312 -18.3335
rtoes 5.90306
lfemur -39.1916 14.8846 -13.6879
ltibia 74.0957
lfoot -30.8357 3.42598
ltoes 13.2207
4253
root -5.44738 14.6077 -12.3272 -562.58 -61.841 564.225
lowerback 17.2766 4.20598 1.1288
upperback -2.26282 6.33535 4.69526
thorax -12.7009 3.04349 2.81091
lowerneck -11.0295 -7.1309 -2.60634
upperneck 18.7192 -10.4783 3.96687
head 7.95215 -4.9204 0.637771
rclavicle 6.50911e-014 5.38458e-014
rhumerus -18.2761 50.9294 -106.737
rradius 50.1506
rwrist -72.4897
rhand -10.9361 1.49503
rfingers 7.12502
rthumb 15.082 -27.9355
lclavicle 6.50911e-014 5.38458e-014
lhumerus 33.7637 -36.4627 27.8104
lradius 102.91
lwrist 16.8899
lhand 2.12802 18.6248
lfingers 7.12502
lthumb 27.627 46.6164
rfemur -1.90853 -1.51218 6.17166
rtibia 37.6376
rfoot -17.9525 -18.1869
rtoes 4.48242
lfemur -38.4571 14.7733 -14.7043
ltibia 73.4925
lfoot -30.7512 4.05169
ltoes 13.6945
